<?xml version="1.0" encoding="UTF-8" standalone="no"?>
<!DOCTYPE svg PUBLIC "-//W3C//DTD SVG 1.1//EN"
 "http://www.w3.org/Graphics/SVG/1.1/DTD/svg11.dtd">
<!-- Generated by graphviz version 2.43.0 (0)
 -->
<!-- Title: %3 Pages: 1 -->
<svg width="1169pt" height="156pt"
 viewBox="0.00 0.00 1169.00 156.00" xmlns="http://www.w3.org/2000/svg" xmlns:xlink="http://www.w3.org/1999/xlink">
<g id="graph0" class="graph" transform="scale(1 1) rotate(0) translate(4 152)">
<title>%3</title>
<polygon fill="white" stroke="transparent" points="-4,4 -4,-152 1165,-152 1165,4 -4,4"/>
<!-- 139670549931632 -->
<g id="node1" class="node">
<title>139670549931632</title>
<polygon fill="none" stroke="black" points="0,-111.5 0,-147.5 183,-147.5 183,-111.5 0,-111.5"/>
<text text-anchor="middle" x="13" y="-125.8" font-family="Times,serif" font-size="14.00">b</text>
<polyline fill="none" stroke="black" points="26,-111.5 26,-147.5 "/>
<text text-anchor="middle" x="70.5" y="-125.8" font-family="Times,serif" font-size="14.00">data &#45;3.04</text>
<polyline fill="none" stroke="black" points="115,-111.5 115,-147.5 "/>
<text text-anchor="middle" x="149" y="-125.8" font-family="Times,serif" font-size="14.00">grad &#45;4</text>
</g>
<!-- 139670549931728_* -->
<g id="node3" class="node">
<title>139670549931728_*</title>
<ellipse fill="none" stroke="black" cx="246" cy="-101.5" rx="27" ry="18"/>
<text text-anchor="middle" x="246" y="-97.8" font-family="Times,serif" font-size="14.00">*</text>
</g>
<!-- 139670549931632&#45;&gt;139670549931728_* -->
<g id="edge4" class="edge">
<title>139670549931632&#45;&gt;139670549931728_*</title>
<path fill="none" stroke="black" d="M183.41,-112.81C192.64,-111.11 201.56,-109.48 209.63,-107.99"/>
<polygon fill="black" stroke="black" points="210.48,-111.4 219.68,-106.15 209.21,-104.51 210.48,-111.4"/>
</g>
<!-- 139670549931728 -->
<g id="node2" class="node">
<title>139670549931728</title>
<polygon fill="none" stroke="black" points="309,-83.5 309,-119.5 504,-119.5 504,-83.5 309,-83.5"/>
<text text-anchor="middle" x="321.5" y="-97.8" font-family="Times,serif" font-size="14.00">e</text>
<polyline fill="none" stroke="black" points="334,-83.5 334,-119.5 "/>
<text text-anchor="middle" x="387.5" y="-97.8" font-family="Times,serif" font-size="14.00">data &#45;6.2624</text>
<polyline fill="none" stroke="black" points="441,-83.5 441,-119.5 "/>
<text text-anchor="middle" x="472.5" y="-97.8" font-family="Times,serif" font-size="14.00">grad 0</text>
</g>
<!-- 139670549931824_+ -->
<g id="node6" class="node">
<title>139670549931824_+</title>
<ellipse fill="none" stroke="black" cx="567" cy="-73.5" rx="27" ry="18"/>
<text text-anchor="middle" x="567" y="-69.8" font-family="Times,serif" font-size="14.00">+</text>
</g>
<!-- 139670549931728&#45;&gt;139670549931824_+ -->
<g id="edge5" class="edge">
<title>139670549931728&#45;&gt;139670549931824_+</title>
<path fill="none" stroke="black" d="M504.27,-84.41C513.59,-82.76 522.57,-81.17 530.66,-79.74"/>
<polygon fill="black" stroke="black" points="531.49,-83.15 540.73,-77.96 530.28,-76.26 531.49,-83.15"/>
</g>
<!-- 139670549931728_*&#45;&gt;139670549931728 -->
<g id="edge1" class="edge">
<title>139670549931728_*&#45;&gt;139670549931728</title>
<path fill="none" stroke="black" d="M273.17,-101.5C280.66,-101.5 289.32,-101.5 298.56,-101.5"/>
<polygon fill="black" stroke="black" points="298.78,-105 308.78,-101.5 298.78,-98 298.78,-105"/>
</g>
<!-- 139670549933792 -->
<g id="node4" class="node">
<title>139670549933792</title>
<polygon fill="none" stroke="black" points="5.5,-56.5 5.5,-92.5 177.5,-92.5 177.5,-56.5 5.5,-56.5"/>
<text text-anchor="middle" x="18" y="-70.8" font-family="Times,serif" font-size="14.00">a</text>
<polyline fill="none" stroke="black" points="30.5,-56.5 30.5,-92.5 "/>
<text text-anchor="middle" x="72.5" y="-70.8" font-family="Times,serif" font-size="14.00">data 2.06</text>
<polyline fill="none" stroke="black" points="114.5,-56.5 114.5,-92.5 "/>
<text text-anchor="middle" x="146" y="-70.8" font-family="Times,serif" font-size="14.00">grad 6</text>
</g>
<!-- 139670549933792&#45;&gt;139670549931728_* -->
<g id="edge8" class="edge">
<title>139670549933792&#45;&gt;139670549931728_*</title>
<path fill="none" stroke="black" d="M177.67,-89.58C188.89,-91.57 199.85,-93.51 209.56,-95.23"/>
<polygon fill="black" stroke="black" points="209.1,-98.7 219.56,-97 210.32,-91.81 209.1,-98.7"/>
</g>
<!-- 139670549931824 -->
<g id="node5" class="node">
<title>139670549931824</title>
<polygon fill="none" stroke="black" points="630,-55.5 630,-91.5 821,-91.5 821,-55.5 630,-55.5"/>
<text text-anchor="middle" x="643" y="-69.8" font-family="Times,serif" font-size="14.00">d</text>
<polyline fill="none" stroke="black" points="656,-55.5 656,-91.5 "/>
<text text-anchor="middle" x="707" y="-69.8" font-family="Times,serif" font-size="14.00">data 3.7176</text>
<polyline fill="none" stroke="black" points="758,-55.5 758,-91.5 "/>
<text text-anchor="middle" x="789.5" y="-69.8" font-family="Times,serif" font-size="14.00">grad 0</text>
</g>
<!-- 139670549933552_* -->
<g id="node10" class="node">
<title>139670549933552_*</title>
<ellipse fill="none" stroke="black" cx="884" cy="-45.5" rx="27" ry="18"/>
<text text-anchor="middle" x="884" y="-41.8" font-family="Times,serif" font-size="14.00">*</text>
</g>
<!-- 139670549931824&#45;&gt;139670549933552_* -->
<g id="edge6" class="edge">
<title>139670549931824&#45;&gt;139670549933552_*</title>
<path fill="none" stroke="black" d="M821.15,-56.57C830.46,-54.9 839.44,-53.29 847.54,-51.84"/>
<polygon fill="black" stroke="black" points="848.41,-55.24 857.64,-50.04 847.18,-48.35 848.41,-55.24"/>
</g>
<!-- 139670549931824_+&#45;&gt;139670549931824 -->
<g id="edge2" class="edge">
<title>139670549931824_+&#45;&gt;139670549931824</title>
<path fill="none" stroke="black" d="M594.19,-73.5C601.67,-73.5 610.31,-73.5 619.51,-73.5"/>
<polygon fill="black" stroke="black" points="619.68,-77 629.68,-73.5 619.68,-70 619.68,-77"/>
</g>
<!-- 139670549931872 -->
<g id="node7" class="node">
<title>139670549931872</title>
<polygon fill="none" stroke="black" points="312,-28.5 312,-64.5 501,-64.5 501,-28.5 312,-28.5"/>
<text text-anchor="middle" x="324" y="-42.8" font-family="Times,serif" font-size="14.00">c</text>
<polyline fill="none" stroke="black" points="336,-28.5 336,-64.5 "/>
<text text-anchor="middle" x="378" y="-42.8" font-family="Times,serif" font-size="14.00">data 9.98</text>
<polyline fill="none" stroke="black" points="420,-28.5 420,-64.5 "/>
<text text-anchor="middle" x="460.5" y="-42.8" font-family="Times,serif" font-size="14.00">grad &#45;2.0</text>
</g>
<!-- 139670549931872&#45;&gt;139670549931824_+ -->
<g id="edge9" class="edge">
<title>139670549931872&#45;&gt;139670549931824_+</title>
<path fill="none" stroke="black" d="M501.07,-62.44C511.48,-64.21 521.54,-65.93 530.52,-67.46"/>
<polygon fill="black" stroke="black" points="530.06,-70.93 540.51,-69.16 531.24,-64.03 530.06,-70.93"/>
</g>
<!-- 139670549933984 -->
<g id="node8" class="node">
<title>139670549933984</title>
<polygon fill="none" stroke="black" points="631.5,-0.5 631.5,-36.5 819.5,-36.5 819.5,-0.5 631.5,-0.5"/>
<text text-anchor="middle" x="642.5" y="-14.8" font-family="Times,serif" font-size="14.00">f</text>
<polyline fill="none" stroke="black" points="653.5,-0.5 653.5,-36.5 "/>
<text text-anchor="middle" x="698" y="-14.8" font-family="Times,serif" font-size="14.00">data &#45;1.96</text>
<polyline fill="none" stroke="black" points="742.5,-0.5 742.5,-36.5 "/>
<text text-anchor="middle" x="781" y="-14.8" font-family="Times,serif" font-size="14.00">grad 4.0</text>
</g>
<!-- 139670549933984&#45;&gt;139670549933552_* -->
<g id="edge7" class="edge">
<title>139670549933984&#45;&gt;139670549933552_*</title>
<path fill="none" stroke="black" d="M819.8,-34.6C829.66,-36.3 839.2,-37.94 847.74,-39.42"/>
<polygon fill="black" stroke="black" points="847.17,-42.87 857.62,-41.12 848.37,-35.97 847.17,-42.87"/>
</g>
<!-- 139670549933552 -->
<g id="node9" class="node">
<title>139670549933552</title>
<polygon fill="none" stroke="black" points="947,-27.5 947,-63.5 1161,-63.5 1161,-27.5 947,-27.5"/>
<text text-anchor="middle" x="960" y="-41.8" font-family="Times,serif" font-size="14.00">L</text>
<polyline fill="none" stroke="black" points="973,-27.5 973,-63.5 "/>
<text text-anchor="middle" x="1035.5" y="-41.8" font-family="Times,serif" font-size="14.00">data &#45;7.286496</text>
<polyline fill="none" stroke="black" points="1098,-27.5 1098,-63.5 "/>
<text text-anchor="middle" x="1129.5" y="-41.8" font-family="Times,serif" font-size="14.00">grad 0</text>
</g>
<!-- 139670549933552_*&#45;&gt;139670549933552 -->
<g id="edge3" class="edge">
<title>139670549933552_*&#45;&gt;139670549933552</title>
<path fill="none" stroke="black" d="M911.25,-45.5C918.7,-45.5 927.34,-45.5 936.59,-45.5"/>
<polygon fill="black" stroke="black" points="936.84,-49 946.84,-45.5 936.84,-42 936.84,-49"/>
</g>
</g>
</svg>
