<?xml version="1.0" encoding="UTF-8" standalone="no"?>
<!DOCTYPE svg PUBLIC "-//W3C//DTD SVG 1.1//EN"
 "http://www.w3.org/Graphics/SVG/1.1/DTD/svg11.dtd">
<!-- Generated by graphviz version 2.43.0 (0)
 -->
<!-- Title: %3 Pages: 1 -->
<svg width="705pt" height="254pt"
 viewBox="0.00 0.00 705.00 254.00" xmlns="http://www.w3.org/2000/svg" xmlns:xlink="http://www.w3.org/1999/xlink">
<g id="graph0" class="graph" transform="scale(1 1) rotate(0) translate(4 250)">
<title>%3</title>
<polygon fill="white" stroke="transparent" points="-4,4 -4,-250 701,-250 701,4 -4,4"/>
<!-- 140456681346096 -->
<g id="node1" class="node">
<title>140456681346096</title>
<polygon fill="none" stroke="black" points="0,-176.5 0,-245.5 80,-245.5 80,-176.5 0,-176.5"/>
<text text-anchor="middle" x="40" y="-230.3" font-family="Times,serif" font-size="14.00">b</text>
<polyline fill="none" stroke="black" points="0,-222.5 80,-222.5 "/>
<text text-anchor="middle" x="40" y="-207.3" font-family="Times,serif" font-size="14.00">data &#45;3.0</text>
<polyline fill="none" stroke="black" points="0,-199.5 80,-199.5 "/>
<text text-anchor="middle" x="40" y="-184.3" font-family="Times,serif" font-size="14.00">grad 0</text>
</g>
<!-- 140456681346144_* -->
<g id="node3" class="node">
<title>140456681346144_*</title>
<ellipse fill="none" stroke="black" cx="143" cy="-167" rx="27" ry="18"/>
<text text-anchor="middle" x="143" y="-163.3" font-family="Times,serif" font-size="14.00">*</text>
</g>
<!-- 140456681346096&#45;&gt;140456681346144_* -->
<g id="edge9" class="edge">
<title>140456681346096&#45;&gt;140456681346144_*</title>
<path fill="none" stroke="black" d="M80.05,-193.99C90.21,-189.56 101.02,-184.85 110.72,-180.63"/>
<polygon fill="black" stroke="black" points="112.21,-183.79 119.98,-176.59 109.42,-177.38 112.21,-183.79"/>
</g>
<!-- 140456681346144 -->
<g id="node2" class="node">
<title>140456681346144</title>
<polygon fill="none" stroke="black" points="208,-132.5 208,-201.5 288,-201.5 288,-132.5 208,-132.5"/>
<text text-anchor="middle" x="248" y="-186.3" font-family="Times,serif" font-size="14.00">e</text>
<polyline fill="none" stroke="black" points="208,-178.5 288,-178.5 "/>
<text text-anchor="middle" x="248" y="-163.3" font-family="Times,serif" font-size="14.00">data &#45;6.0</text>
<polyline fill="none" stroke="black" points="208,-155.5 288,-155.5 "/>
<text text-anchor="middle" x="248" y="-140.3" font-family="Times,serif" font-size="14.00">grad 0</text>
</g>
<!-- 140456681347680_+ -->
<g id="node5" class="node">
<title>140456681347680_+</title>
<ellipse fill="none" stroke="black" cx="353" cy="-123" rx="27" ry="18"/>
<text text-anchor="middle" x="353" y="-119.3" font-family="Times,serif" font-size="14.00">+</text>
</g>
<!-- 140456681346144&#45;&gt;140456681347680_+ -->
<g id="edge6" class="edge">
<title>140456681346144&#45;&gt;140456681347680_+</title>
<path fill="none" stroke="black" d="M288.23,-150.24C298.92,-145.68 310.35,-140.79 320.54,-136.44"/>
<polygon fill="black" stroke="black" points="322.05,-139.6 329.87,-132.45 319.3,-133.16 322.05,-139.6"/>
</g>
<!-- 140456681346144_*&#45;&gt;140456681346144 -->
<g id="edge1" class="edge">
<title>140456681346144_*&#45;&gt;140456681346144</title>
<path fill="none" stroke="black" d="M170.26,-167C178.66,-167 188.26,-167 197.75,-167"/>
<polygon fill="black" stroke="black" points="197.95,-170.5 207.95,-167 197.95,-163.5 197.95,-170.5"/>
</g>
<!-- 140456681347680 -->
<g id="node4" class="node">
<title>140456681347680</title>
<polygon fill="none" stroke="black" points="416,-88.5 416,-157.5 491,-157.5 491,-88.5 416,-88.5"/>
<text text-anchor="middle" x="453.5" y="-142.3" font-family="Times,serif" font-size="14.00">d</text>
<polyline fill="none" stroke="black" points="416,-134.5 491,-134.5 "/>
<text text-anchor="middle" x="453.5" y="-119.3" font-family="Times,serif" font-size="14.00">data 4.0</text>
<polyline fill="none" stroke="black" points="416,-111.5 491,-111.5 "/>
<text text-anchor="middle" x="453.5" y="-96.3" font-family="Times,serif" font-size="14.00">grad 0</text>
</g>
<!-- 140456681348016_* -->
<g id="node10" class="node">
<title>140456681348016_*</title>
<ellipse fill="none" stroke="black" cx="554" cy="-79" rx="27" ry="18"/>
<text text-anchor="middle" x="554" y="-75.3" font-family="Times,serif" font-size="14.00">*</text>
</g>
<!-- 140456681347680&#45;&gt;140456681348016_* -->
<g id="edge4" class="edge">
<title>140456681347680&#45;&gt;140456681348016_*</title>
<path fill="none" stroke="black" d="M491.18,-106.62C501.27,-102.11 512.12,-97.26 521.86,-92.91"/>
<polygon fill="black" stroke="black" points="523.47,-96.02 531.17,-88.75 520.62,-89.63 523.47,-96.02"/>
</g>
<!-- 140456681347680_+&#45;&gt;140456681347680 -->
<g id="edge2" class="edge">
<title>140456681347680_+&#45;&gt;140456681347680</title>
<path fill="none" stroke="black" d="M380.14,-123C388,-123 396.89,-123 405.66,-123"/>
<polygon fill="black" stroke="black" points="405.86,-126.5 415.86,-123 405.86,-119.5 405.86,-126.5"/>
</g>
<!-- 140456681347248 -->
<g id="node6" class="node">
<title>140456681347248</title>
<polygon fill="none" stroke="black" points="2.5,-88.5 2.5,-157.5 77.5,-157.5 77.5,-88.5 2.5,-88.5"/>
<text text-anchor="middle" x="40" y="-142.3" font-family="Times,serif" font-size="14.00">a</text>
<polyline fill="none" stroke="black" points="2.5,-134.5 77.5,-134.5 "/>
<text text-anchor="middle" x="40" y="-119.3" font-family="Times,serif" font-size="14.00">data 2.0</text>
<polyline fill="none" stroke="black" points="2.5,-111.5 77.5,-111.5 "/>
<text text-anchor="middle" x="40" y="-96.3" font-family="Times,serif" font-size="14.00">grad 0</text>
</g>
<!-- 140456681347248&#45;&gt;140456681346144_* -->
<g id="edge5" class="edge">
<title>140456681347248&#45;&gt;140456681346144_*</title>
<path fill="none" stroke="black" d="M77.75,-139.01C88.43,-143.66 100.01,-148.71 110.35,-153.21"/>
<polygon fill="black" stroke="black" points="109.26,-156.55 119.82,-157.34 112.05,-150.14 109.26,-156.55"/>
</g>
<!-- 140456681347296 -->
<g id="node7" class="node">
<title>140456681347296</title>
<polygon fill="none" stroke="black" points="206,-44.5 206,-113.5 290,-113.5 290,-44.5 206,-44.5"/>
<text text-anchor="middle" x="248" y="-98.3" font-family="Times,serif" font-size="14.00">c</text>
<polyline fill="none" stroke="black" points="206,-90.5 290,-90.5 "/>
<text text-anchor="middle" x="248" y="-75.3" font-family="Times,serif" font-size="14.00">data 10.0</text>
<polyline fill="none" stroke="black" points="206,-67.5 290,-67.5 "/>
<text text-anchor="middle" x="248" y="-52.3" font-family="Times,serif" font-size="14.00">grad 0</text>
</g>
<!-- 140456681347296&#45;&gt;140456681347680_+ -->
<g id="edge7" class="edge">
<title>140456681347296&#45;&gt;140456681347680_+</title>
<path fill="none" stroke="black" d="M290,-96.52C300.19,-100.87 310.94,-105.46 320.58,-109.58"/>
<polygon fill="black" stroke="black" points="319.22,-112.8 329.79,-113.51 321.97,-106.36 319.22,-112.8"/>
</g>
<!-- 140456681347392 -->
<g id="node8" class="node">
<title>140456681347392</title>
<polygon fill="none" stroke="black" points="420.5,-0.5 420.5,-69.5 486.5,-69.5 486.5,-0.5 420.5,-0.5"/>
<text text-anchor="middle" x="453.5" y="-54.3" font-family="Times,serif" font-size="14.00">f</text>
<polyline fill="none" stroke="black" points="420.5,-46.5 486.5,-46.5 "/>
<text text-anchor="middle" x="453.5" y="-31.3" font-family="Times,serif" font-size="14.00">data &#45;2</text>
<polyline fill="none" stroke="black" points="420.5,-23.5 486.5,-23.5 "/>
<text text-anchor="middle" x="453.5" y="-8.3" font-family="Times,serif" font-size="14.00">grad 0</text>
</g>
<!-- 140456681347392&#45;&gt;140456681348016_* -->
<g id="edge8" class="edge">
<title>140456681347392&#45;&gt;140456681348016_*</title>
<path fill="none" stroke="black" d="M486.75,-49.41C498.04,-54.45 510.67,-60.09 521.86,-65.09"/>
<polygon fill="black" stroke="black" points="520.7,-68.4 531.25,-69.29 523.55,-62.01 520.7,-68.4"/>
</g>
<!-- 140456681348016 -->
<g id="node9" class="node">
<title>140456681348016</title>
<polygon fill="none" stroke="black" points="617,-44.5 617,-113.5 697,-113.5 697,-44.5 617,-44.5"/>
<text text-anchor="middle" x="657" y="-98.3" font-family="Times,serif" font-size="14.00">L</text>
<polyline fill="none" stroke="black" points="617,-90.5 697,-90.5 "/>
<text text-anchor="middle" x="657" y="-75.3" font-family="Times,serif" font-size="14.00">data &#45;8.0</text>
<polyline fill="none" stroke="black" points="617,-67.5 697,-67.5 "/>
<text text-anchor="middle" x="657" y="-52.3" font-family="Times,serif" font-size="14.00">grad 0</text>
</g>
<!-- 140456681348016_*&#45;&gt;140456681348016 -->
<g id="edge3" class="edge">
<title>140456681348016_*&#45;&gt;140456681348016</title>
<path fill="none" stroke="black" d="M581.01,-79C588.82,-79 597.67,-79 606.48,-79"/>
<polygon fill="black" stroke="black" points="606.73,-82.5 616.73,-79 606.73,-75.5 606.73,-82.5"/>
</g>
</g>
</svg>
