<?xml version="1.0" encoding="UTF-8" standalone="no"?>
<!DOCTYPE svg PUBLIC "-//W3C//DTD SVG 1.1//EN"
 "http://www.w3.org/Graphics/SVG/1.1/DTD/svg11.dtd">
<!-- Generated by graphviz version 2.43.0 (0)
 -->
<!-- Title: %3 Pages: 1 -->
<svg width="1188pt" height="128pt"
 viewBox="0.00 0.00 1188.00 128.00" xmlns="http://www.w3.org/2000/svg" xmlns:xlink="http://www.w3.org/1999/xlink">
<g id="graph0" class="graph" transform="scale(1 1) rotate(0) translate(4 124)">
<title>%3</title>
<polygon fill="white" stroke="transparent" points="-4,4 -4,-124 1184,-124 1184,4 -4,4"/>
<!-- 140656207020624 -->
<g id="node1" class="node">
<title>140656207020624</title>
<polygon fill="none" stroke="black" points="656,-82.5 656,-118.5 853,-118.5 853,-82.5 656,-82.5"/>
<text text-anchor="middle" x="667" y="-96.8" font-family="Times,serif" font-size="14.00">f</text>
<polyline fill="none" stroke="black" points="678,-82.5 678,-118.5 "/>
<text text-anchor="middle" x="722.5" y="-96.8" font-family="Times,serif" font-size="14.00">data &#45;2.00</text>
<polyline fill="none" stroke="black" points="767,-82.5 767,-118.5 "/>
<text text-anchor="middle" x="810" y="-96.8" font-family="Times,serif" font-size="14.00">grad 0.00</text>
</g>
<!-- 140656207020480_* -->
<g id="node10" class="node">
<title>140656207020480_*</title>
<ellipse fill="none" stroke="black" cx="916" cy="-72.5" rx="27" ry="18"/>
<text text-anchor="middle" x="916" y="-68.8" font-family="Times,serif" font-size="14.00">*</text>
</g>
<!-- 140656207020624&#45;&gt;140656207020480_* -->
<g id="edge4" class="edge">
<title>140656207020624&#45;&gt;140656207020480_*</title>
<path fill="none" stroke="black" d="M853.33,-83.33C862.66,-81.69 871.64,-80.11 879.72,-78.69"/>
<polygon fill="black" stroke="black" points="880.54,-82.1 889.78,-76.93 879.33,-75.21 880.54,-82.1"/>
</g>
<!-- 140656207022688 -->
<g id="node2" class="node">
<title>140656207022688</title>
<polygon fill="none" stroke="black" points="656.5,-27.5 656.5,-63.5 852.5,-63.5 852.5,-27.5 656.5,-27.5"/>
<text text-anchor="middle" x="669.5" y="-41.8" font-family="Times,serif" font-size="14.00">d</text>
<polyline fill="none" stroke="black" points="682.5,-27.5 682.5,-63.5 "/>
<text text-anchor="middle" x="724.5" y="-41.8" font-family="Times,serif" font-size="14.00">data 4.00</text>
<polyline fill="none" stroke="black" points="766.5,-27.5 766.5,-63.5 "/>
<text text-anchor="middle" x="809.5" y="-41.8" font-family="Times,serif" font-size="14.00">grad 0.00</text>
</g>
<!-- 140656207022688&#45;&gt;140656207020480_* -->
<g id="edge9" class="edge">
<title>140656207022688&#45;&gt;140656207020480_*</title>
<path fill="none" stroke="black" d="M852.88,-61.98C862.36,-63.59 871.5,-65.14 879.71,-66.53"/>
<polygon fill="black" stroke="black" points="879.13,-69.98 889.57,-68.2 880.3,-63.08 879.13,-69.98"/>
</g>
<!-- 140656207022688_+ -->
<g id="node3" class="node">
<title>140656207022688_+</title>
<ellipse fill="none" stroke="black" cx="593" cy="-45.5" rx="27" ry="18"/>
<text text-anchor="middle" x="593" y="-41.8" font-family="Times,serif" font-size="14.00">+</text>
</g>
<!-- 140656207022688_+&#45;&gt;140656207022688 -->
<g id="edge1" class="edge">
<title>140656207022688_+&#45;&gt;140656207022688</title>
<path fill="none" stroke="black" d="M620.34,-45.5C627.88,-45.5 636.59,-45.5 645.88,-45.5"/>
<polygon fill="black" stroke="black" points="646.17,-49 656.17,-45.5 646.17,-42 646.17,-49"/>
</g>
<!-- 140656206963280 -->
<g id="node4" class="node">
<title>140656206963280</title>
<polygon fill="none" stroke="black" points="0,-83.5 0,-119.5 201,-119.5 201,-83.5 0,-83.5"/>
<text text-anchor="middle" x="13" y="-97.8" font-family="Times,serif" font-size="14.00">b</text>
<polyline fill="none" stroke="black" points="26,-83.5 26,-119.5 "/>
<text text-anchor="middle" x="70.5" y="-97.8" font-family="Times,serif" font-size="14.00">data &#45;3.00</text>
<polyline fill="none" stroke="black" points="115,-83.5 115,-119.5 "/>
<text text-anchor="middle" x="158" y="-97.8" font-family="Times,serif" font-size="14.00">grad 0.00</text>
</g>
<!-- 140656207020720_* -->
<g id="node7" class="node">
<title>140656207020720_*</title>
<ellipse fill="none" stroke="black" cx="264" cy="-73.5" rx="27" ry="18"/>
<text text-anchor="middle" x="264" y="-69.8" font-family="Times,serif" font-size="14.00">*</text>
</g>
<!-- 140656206963280&#45;&gt;140656207020720_* -->
<g id="edge5" class="edge">
<title>140656206963280&#45;&gt;140656207020720_*</title>
<path fill="none" stroke="black" d="M201.02,-84.25C210.41,-82.62 219.44,-81.05 227.56,-79.64"/>
<polygon fill="black" stroke="black" points="228.42,-83.05 237.68,-77.89 227.23,-76.15 228.42,-83.05"/>
</g>
<!-- 140656207022736 -->
<g id="node5" class="node">
<title>140656207022736</title>
<polygon fill="none" stroke="black" points="3,-28.5 3,-64.5 198,-64.5 198,-28.5 3,-28.5"/>
<text text-anchor="middle" x="15.5" y="-42.8" font-family="Times,serif" font-size="14.00">a</text>
<polyline fill="none" stroke="black" points="28,-28.5 28,-64.5 "/>
<text text-anchor="middle" x="70" y="-42.8" font-family="Times,serif" font-size="14.00">data 2.00</text>
<polyline fill="none" stroke="black" points="112,-28.5 112,-64.5 "/>
<text text-anchor="middle" x="155" y="-42.8" font-family="Times,serif" font-size="14.00">grad 0.00</text>
</g>
<!-- 140656207022736&#45;&gt;140656207020720_* -->
<g id="edge8" class="edge">
<title>140656207022736&#45;&gt;140656207020720_*</title>
<path fill="none" stroke="black" d="M198.24,-62.67C208.67,-64.42 218.73,-66.1 227.68,-67.6"/>
<polygon fill="black" stroke="black" points="227.2,-71.06 237.64,-69.26 228.36,-64.16 227.2,-71.06"/>
</g>
<!-- 140656207020720 -->
<g id="node6" class="node">
<title>140656207020720</title>
<polygon fill="none" stroke="black" points="328.5,-55.5 328.5,-91.5 528.5,-91.5 528.5,-55.5 328.5,-55.5"/>
<text text-anchor="middle" x="341" y="-69.8" font-family="Times,serif" font-size="14.00">e</text>
<polyline fill="none" stroke="black" points="353.5,-55.5 353.5,-91.5 "/>
<text text-anchor="middle" x="398" y="-69.8" font-family="Times,serif" font-size="14.00">data &#45;6.00</text>
<polyline fill="none" stroke="black" points="442.5,-55.5 442.5,-91.5 "/>
<text text-anchor="middle" x="485.5" y="-69.8" font-family="Times,serif" font-size="14.00">grad 0.00</text>
</g>
<!-- 140656207020720&#45;&gt;140656207022688_+ -->
<g id="edge6" class="edge">
<title>140656207020720&#45;&gt;140656207022688_+</title>
<path fill="none" stroke="black" d="M528.71,-56.41C538.67,-54.69 548.25,-53.04 556.81,-51.56"/>
<polygon fill="black" stroke="black" points="557.44,-55.01 566.7,-49.86 556.26,-48.11 557.44,-55.01"/>
</g>
<!-- 140656207020720_*&#45;&gt;140656207020720 -->
<g id="edge2" class="edge">
<title>140656207020720_*&#45;&gt;140656207020720</title>
<path fill="none" stroke="black" d="M291.11,-73.5C299.05,-73.5 308.32,-73.5 318.22,-73.5"/>
<polygon fill="black" stroke="black" points="318.31,-77 328.31,-73.5 318.31,-70 318.31,-77"/>
</g>
<!-- 140656207021488 -->
<g id="node8" class="node">
<title>140656207021488</title>
<polygon fill="none" stroke="black" points="327,-0.5 327,-36.5 530,-36.5 530,-0.5 327,-0.5"/>
<text text-anchor="middle" x="339" y="-14.8" font-family="Times,serif" font-size="14.00">c</text>
<polyline fill="none" stroke="black" points="351,-0.5 351,-36.5 "/>
<text text-anchor="middle" x="397.5" y="-14.8" font-family="Times,serif" font-size="14.00">data 10.00</text>
<polyline fill="none" stroke="black" points="444,-0.5 444,-36.5 "/>
<text text-anchor="middle" x="487" y="-14.8" font-family="Times,serif" font-size="14.00">grad 0.00</text>
</g>
<!-- 140656207021488&#45;&gt;140656207022688_+ -->
<g id="edge7" class="edge">
<title>140656207021488&#45;&gt;140656207022688_+</title>
<path fill="none" stroke="black" d="M530.1,-35.22C539.49,-36.78 548.52,-38.28 556.63,-39.62"/>
<polygon fill="black" stroke="black" points="556.29,-43.12 566.73,-41.3 557.44,-36.21 556.29,-43.12"/>
</g>
<!-- 140656207020480 -->
<g id="node9" class="node">
<title>140656207020480</title>
<polygon fill="none" stroke="black" points="979,-54.5 979,-90.5 1180,-90.5 1180,-54.5 979,-54.5"/>
<text text-anchor="middle" x="992" y="-68.8" font-family="Times,serif" font-size="14.00">L</text>
<polyline fill="none" stroke="black" points="1005,-54.5 1005,-90.5 "/>
<text text-anchor="middle" x="1049.5" y="-68.8" font-family="Times,serif" font-size="14.00">data &#45;8.00</text>
<polyline fill="none" stroke="black" points="1094,-54.5 1094,-90.5 "/>
<text text-anchor="middle" x="1137" y="-68.8" font-family="Times,serif" font-size="14.00">grad 0.00</text>
</g>
<!-- 140656207020480_*&#45;&gt;140656207020480 -->
<g id="edge3" class="edge">
<title>140656207020480_*&#45;&gt;140656207020480</title>
<path fill="none" stroke="black" d="M943.31,-72.5C950.79,-72.5 959.44,-72.5 968.68,-72.5"/>
<polygon fill="black" stroke="black" points="968.9,-76 978.9,-72.5 968.9,-69 968.9,-76"/>
</g>
</g>
</svg>
