<?xml version="1.0" encoding="UTF-8" standalone="no"?>
<!DOCTYPE svg PUBLIC "-//W3C//DTD SVG 1.1//EN"
 "http://www.w3.org/Graphics/SVG/1.1/DTD/svg11.dtd">
<!-- Generated by graphviz version 2.43.0 (0)
 -->
<!-- Title: %3 Pages: 1 -->
<svg width="1059pt" height="128pt"
 viewBox="0.00 0.00 1059.00 128.00" xmlns="http://www.w3.org/2000/svg" xmlns:xlink="http://www.w3.org/1999/xlink">
<g id="graph0" class="graph" transform="scale(1 1) rotate(0) translate(4 124)">
<title>%3</title>
<polygon fill="white" stroke="transparent" points="-4,4 -4,-124 1055,-124 1055,4 -4,4"/>
<!-- 139670549932064 -->
<g id="node1" class="node">
<title>139670549932064</title>
<polygon fill="none" stroke="black" points="882,-27.5 882,-63.5 1051,-63.5 1051,-27.5 882,-27.5"/>
<text text-anchor="middle" x="895" y="-41.8" font-family="Times,serif" font-size="14.00">L</text>
<polyline fill="none" stroke="black" points="908,-27.5 908,-63.5 "/>
<text text-anchor="middle" x="948" y="-41.8" font-family="Times,serif" font-size="14.00">data &#45;8.0</text>
<polyline fill="none" stroke="black" points="988,-27.5 988,-63.5 "/>
<text text-anchor="middle" x="1019.5" y="-41.8" font-family="Times,serif" font-size="14.00">grad 0</text>
</g>
<!-- 139670549932064_* -->
<g id="node2" class="node">
<title>139670549932064_*</title>
<ellipse fill="none" stroke="black" cx="819" cy="-45.5" rx="27" ry="18"/>
<text text-anchor="middle" x="819" y="-41.8" font-family="Times,serif" font-size="14.00">*</text>
</g>
<!-- 139670549932064_*&#45;&gt;139670549932064 -->
<g id="edge1" class="edge">
<title>139670549932064_*&#45;&gt;139670549932064</title>
<path fill="none" stroke="black" d="M846.01,-45.5C853.58,-45.5 862.31,-45.5 871.54,-45.5"/>
<polygon fill="black" stroke="black" points="871.72,-49 881.72,-45.5 871.72,-42 871.72,-49"/>
</g>
<!-- 139670549931632 -->
<g id="node3" class="node">
<title>139670549931632</title>
<polygon fill="none" stroke="black" points="0,-56.5 0,-92.5 169,-92.5 169,-56.5 0,-56.5"/>
<text text-anchor="middle" x="13" y="-70.8" font-family="Times,serif" font-size="14.00">b</text>
<polyline fill="none" stroke="black" points="26,-56.5 26,-92.5 "/>
<text text-anchor="middle" x="66" y="-70.8" font-family="Times,serif" font-size="14.00">data &#45;3.0</text>
<polyline fill="none" stroke="black" points="106,-56.5 106,-92.5 "/>
<text text-anchor="middle" x="137.5" y="-70.8" font-family="Times,serif" font-size="14.00">grad 0</text>
</g>
<!-- 139670549931968_* -->
<g id="node10" class="node">
<title>139670549931968_*</title>
<ellipse fill="none" stroke="black" cx="232" cy="-46.5" rx="27" ry="18"/>
<text text-anchor="middle" x="232" y="-42.8" font-family="Times,serif" font-size="14.00">*</text>
</g>
<!-- 139670549931632&#45;&gt;139670549931968_* -->
<g id="edge6" class="edge">
<title>139670549931632&#45;&gt;139670549931968_*</title>
<path fill="none" stroke="black" d="M169.29,-58.37C178.62,-56.58 187.7,-54.83 195.9,-53.25"/>
<polygon fill="black" stroke="black" points="196.61,-56.68 205.77,-51.36 195.29,-49.81 196.61,-56.68"/>
</g>
<!-- 139670549933792 -->
<g id="node4" class="node">
<title>139670549933792</title>
<polygon fill="none" stroke="black" points="3,-1.5 3,-37.5 166,-37.5 166,-1.5 3,-1.5"/>
<text text-anchor="middle" x="15.5" y="-15.8" font-family="Times,serif" font-size="14.00">a</text>
<polyline fill="none" stroke="black" points="28,-1.5 28,-37.5 "/>
<text text-anchor="middle" x="65.5" y="-15.8" font-family="Times,serif" font-size="14.00">data 2.0</text>
<polyline fill="none" stroke="black" points="103,-1.5 103,-37.5 "/>
<text text-anchor="middle" x="134.5" y="-15.8" font-family="Times,serif" font-size="14.00">grad 0</text>
</g>
<!-- 139670549933792&#45;&gt;139670549931968_* -->
<g id="edge5" class="edge">
<title>139670549933792&#45;&gt;139670549931968_*</title>
<path fill="none" stroke="black" d="M166.33,-34.5C176.58,-36.4 186.62,-38.26 195.6,-39.93"/>
<polygon fill="black" stroke="black" points="195.16,-43.41 205.63,-41.79 196.43,-36.53 195.16,-43.41"/>
</g>
<!-- 139670549932352 -->
<g id="node5" class="node">
<title>139670549932352</title>
<polygon fill="none" stroke="black" points="592,-55.5 592,-91.5 756,-91.5 756,-55.5 592,-55.5"/>
<text text-anchor="middle" x="605" y="-69.8" font-family="Times,serif" font-size="14.00">d</text>
<polyline fill="none" stroke="black" points="618,-55.5 618,-91.5 "/>
<text text-anchor="middle" x="655.5" y="-69.8" font-family="Times,serif" font-size="14.00">data 4.0</text>
<polyline fill="none" stroke="black" points="693,-55.5 693,-91.5 "/>
<text text-anchor="middle" x="724.5" y="-69.8" font-family="Times,serif" font-size="14.00">grad 0</text>
</g>
<!-- 139670549932352&#45;&gt;139670549932064_* -->
<g id="edge4" class="edge">
<title>139670549932352&#45;&gt;139670549932064_*</title>
<path fill="none" stroke="black" d="M756.11,-57.62C765.51,-55.78 774.68,-53.98 782.96,-52.36"/>
<polygon fill="black" stroke="black" points="783.78,-55.77 792.92,-50.41 782.43,-48.9 783.78,-55.77"/>
</g>
<!-- 139670549932352_+ -->
<g id="node6" class="node">
<title>139670549932352_+</title>
<ellipse fill="none" stroke="black" cx="529" cy="-73.5" rx="27" ry="18"/>
<text text-anchor="middle" x="529" y="-69.8" font-family="Times,serif" font-size="14.00">+</text>
</g>
<!-- 139670549932352_+&#45;&gt;139670549932352 -->
<g id="edge2" class="edge">
<title>139670549932352_+&#45;&gt;139670549932352</title>
<path fill="none" stroke="black" d="M556.23,-73.5C563.81,-73.5 572.54,-73.5 581.75,-73.5"/>
<polygon fill="black" stroke="black" points="581.89,-77 591.89,-73.5 581.89,-70 581.89,-77"/>
</g>
<!-- 139670549931872 -->
<g id="node7" class="node">
<title>139670549931872</title>
<polygon fill="none" stroke="black" points="295,-83.5 295,-119.5 466,-119.5 466,-83.5 295,-83.5"/>
<text text-anchor="middle" x="307" y="-97.8" font-family="Times,serif" font-size="14.00">c</text>
<polyline fill="none" stroke="black" points="319,-83.5 319,-119.5 "/>
<text text-anchor="middle" x="361" y="-97.8" font-family="Times,serif" font-size="14.00">data 10.0</text>
<polyline fill="none" stroke="black" points="403,-83.5 403,-119.5 "/>
<text text-anchor="middle" x="434.5" y="-97.8" font-family="Times,serif" font-size="14.00">grad 0</text>
</g>
<!-- 139670549931872&#45;&gt;139670549932352_+ -->
<g id="edge8" class="edge">
<title>139670549931872&#45;&gt;139670549932352_+</title>
<path fill="none" stroke="black" d="M466.3,-85.29C475.64,-83.51 484.72,-81.77 492.93,-80.2"/>
<polygon fill="black" stroke="black" points="493.63,-83.63 502.79,-78.32 492.31,-76.76 493.63,-83.63"/>
</g>
<!-- 139670549933984 -->
<g id="node8" class="node">
<title>139670549933984</title>
<polygon fill="none" stroke="black" points="598.5,-0.5 598.5,-36.5 749.5,-36.5 749.5,-0.5 598.5,-0.5"/>
<text text-anchor="middle" x="609.5" y="-14.8" font-family="Times,serif" font-size="14.00">f</text>
<polyline fill="none" stroke="black" points="620.5,-0.5 620.5,-36.5 "/>
<text text-anchor="middle" x="653.5" y="-14.8" font-family="Times,serif" font-size="14.00">data &#45;2</text>
<polyline fill="none" stroke="black" points="686.5,-0.5 686.5,-36.5 "/>
<text text-anchor="middle" x="718" y="-14.8" font-family="Times,serif" font-size="14.00">grad 0</text>
</g>
<!-- 139670549933984&#45;&gt;139670549932064_* -->
<g id="edge7" class="edge">
<title>139670549933984&#45;&gt;139670549932064_*</title>
<path fill="none" stroke="black" d="M749.85,-32.63C761.39,-34.81 772.8,-36.97 782.9,-38.87"/>
<polygon fill="black" stroke="black" points="782.42,-42.34 792.9,-40.76 783.72,-35.47 782.42,-42.34"/>
</g>
<!-- 139670549931968 -->
<g id="node9" class="node">
<title>139670549931968</title>
<polygon fill="none" stroke="black" points="296.5,-28.5 296.5,-64.5 464.5,-64.5 464.5,-28.5 296.5,-28.5"/>
<text text-anchor="middle" x="309" y="-42.8" font-family="Times,serif" font-size="14.00">e</text>
<polyline fill="none" stroke="black" points="321.5,-28.5 321.5,-64.5 "/>
<text text-anchor="middle" x="361.5" y="-42.8" font-family="Times,serif" font-size="14.00">data &#45;6.0</text>
<polyline fill="none" stroke="black" points="401.5,-28.5 401.5,-64.5 "/>
<text text-anchor="middle" x="433" y="-42.8" font-family="Times,serif" font-size="14.00">grad 0</text>
</g>
<!-- 139670549931968&#45;&gt;139670549932352_+ -->
<g id="edge9" class="edge">
<title>139670549931968&#45;&gt;139670549932352_+</title>
<path fill="none" stroke="black" d="M464.6,-61.81C474.42,-63.63 484.01,-65.39 492.62,-66.98"/>
<polygon fill="black" stroke="black" points="492.14,-70.45 502.61,-68.82 493.41,-63.57 492.14,-70.45"/>
</g>
<!-- 139670549931968_*&#45;&gt;139670549931968 -->
<g id="edge3" class="edge">
<title>139670549931968_*&#45;&gt;139670549931968</title>
<path fill="none" stroke="black" d="M259.19,-46.5C267.13,-46.5 276.35,-46.5 286.09,-46.5"/>
<polygon fill="black" stroke="black" points="286.39,-50 296.39,-46.5 286.39,-43 286.39,-50"/>
</g>
</g>
</svg>
