<?xml version="1.0" encoding="UTF-8" standalone="no"?>
<!DOCTYPE svg PUBLIC "-//W3C//DTD SVG 1.1//EN"
 "http://www.w3.org/Graphics/SVG/1.1/DTD/svg11.dtd">
<!-- Generated by graphviz version 2.43.0 (0)
 -->
<!-- Title: %3 Pages: 1 -->
<svg width="284pt" height="166pt"
 viewBox="0.00 0.00 284.00 166.00" xmlns="http://www.w3.org/2000/svg" xmlns:xlink="http://www.w3.org/1999/xlink">
<g id="graph0" class="graph" transform="scale(1 1) rotate(0) translate(4 162)">
<title>%3</title>
<polygon fill="white" stroke="transparent" points="-4,4 -4,-162 280,-162 280,4 -4,4"/>
<!-- 140572607431680 -->
<g id="node1" class="node">
<title>140572607431680</title>
<polygon fill="none" stroke="black" points="0,-88.5 0,-157.5 75,-157.5 75,-88.5 0,-88.5"/>
<text text-anchor="middle" x="37.5" y="-142.3" font-family="Times,serif" font-size="14.00">b</text>
<polyline fill="none" stroke="black" points="0,-134.5 75,-134.5 "/>
<text text-anchor="middle" x="37.5" y="-119.3" font-family="Times,serif" font-size="14.00">data 3.0</text>
<polyline fill="none" stroke="black" points="0,-111.5 75,-111.5 "/>
<text text-anchor="middle" x="37.5" y="-96.3" font-family="Times,serif" font-size="14.00">grad 0</text>
</g>
<!-- 140572607431536_* -->
<g id="node4" class="node">
<title>140572607431536_*</title>
<ellipse fill="none" stroke="black" cx="138" cy="-79" rx="27" ry="18"/>
<text text-anchor="middle" x="138" y="-75.3" font-family="Times,serif" font-size="14.00">*</text>
</g>
<!-- 140572607431680&#45;&gt;140572607431536_* -->
<g id="edge2" class="edge">
<title>140572607431680&#45;&gt;140572607431536_*</title>
<path fill="none" stroke="black" d="M75.18,-106.62C85.27,-102.11 96.12,-97.26 105.86,-92.91"/>
<polygon fill="black" stroke="black" points="107.47,-96.02 115.17,-88.75 104.62,-89.63 107.47,-96.02"/>
</g>
<!-- 140572607432352 -->
<g id="node2" class="node">
<title>140572607432352</title>
<polygon fill="none" stroke="black" points="0,-0.5 0,-69.5 75,-69.5 75,-0.5 0,-0.5"/>
<text text-anchor="middle" x="37.5" y="-54.3" font-family="Times,serif" font-size="14.00">a</text>
<polyline fill="none" stroke="black" points="0,-46.5 75,-46.5 "/>
<text text-anchor="middle" x="37.5" y="-31.3" font-family="Times,serif" font-size="14.00">data 2.0</text>
<polyline fill="none" stroke="black" points="0,-23.5 75,-23.5 "/>
<text text-anchor="middle" x="37.5" y="-8.3" font-family="Times,serif" font-size="14.00">grad 0</text>
</g>
<!-- 140572607432352&#45;&gt;140572607431536_* -->
<g id="edge3" class="edge">
<title>140572607432352&#45;&gt;140572607431536_*</title>
<path fill="none" stroke="black" d="M75.18,-51.38C85.27,-55.89 96.12,-60.74 105.86,-65.09"/>
<polygon fill="black" stroke="black" points="104.62,-68.37 115.17,-69.25 107.47,-61.98 104.62,-68.37"/>
</g>
<!-- 140572607431536 -->
<g id="node3" class="node">
<title>140572607431536</title>
<polygon fill="none" stroke="black" points="201,-44.5 201,-113.5 276,-113.5 276,-44.5 201,-44.5"/>
<text text-anchor="middle" x="238.5" y="-98.3" font-family="Times,serif" font-size="14.00">c</text>
<polyline fill="none" stroke="black" points="201,-90.5 276,-90.5 "/>
<text text-anchor="middle" x="238.5" y="-75.3" font-family="Times,serif" font-size="14.00">data 6.0</text>
<polyline fill="none" stroke="black" points="201,-67.5 276,-67.5 "/>
<text text-anchor="middle" x="238.5" y="-52.3" font-family="Times,serif" font-size="14.00">grad 0</text>
</g>
<!-- 140572607431536_*&#45;&gt;140572607431536 -->
<g id="edge1" class="edge">
<title>140572607431536_*&#45;&gt;140572607431536</title>
<path fill="none" stroke="black" d="M165.14,-79C173,-79 181.89,-79 190.66,-79"/>
<polygon fill="black" stroke="black" points="190.86,-82.5 200.86,-79 190.86,-75.5 190.86,-82.5"/>
</g>
</g>
</svg>
