<?xml version="1.0" encoding="UTF-8" standalone="no"?>
<!DOCTYPE svg PUBLIC "-//W3C//DTD SVG 1.1//EN"
 "http://www.w3.org/Graphics/SVG/1.1/DTD/svg11.dtd">
<!-- Generated by graphviz version 2.43.0 (0)
 -->
<!-- Title: %3 Pages: 1 -->
<svg width="809pt" height="254pt"
 viewBox="0.00 0.00 809.00 254.00" xmlns="http://www.w3.org/2000/svg" xmlns:xlink="http://www.w3.org/1999/xlink">
<g id="graph0" class="graph" transform="scale(1 1) rotate(0) translate(4 250)">
<title>%3</title>
<polygon fill="white" stroke="transparent" points="-4,4 -4,-250 805,-250 805,4 -4,4"/>
<!-- 140456681346096 -->
<g id="node1" class="node">
<title>140456681346096</title>
<polygon fill="none" stroke="black" points="0,-176.5 0,-245.5 89,-245.5 89,-176.5 0,-176.5"/>
<text text-anchor="middle" x="44.5" y="-230.3" font-family="Times,serif" font-size="14.00">b</text>
<polyline fill="none" stroke="black" points="0,-222.5 89,-222.5 "/>
<text text-anchor="middle" x="44.5" y="-207.3" font-family="Times,serif" font-size="14.00">data &#45;3.04</text>
<polyline fill="none" stroke="black" points="0,-199.5 89,-199.5 "/>
<text text-anchor="middle" x="44.5" y="-184.3" font-family="Times,serif" font-size="14.00">grad &#45;4</text>
</g>
<!-- 140456681348832_* -->
<g id="node4" class="node">
<title>140456681348832_*</title>
<ellipse fill="none" stroke="black" cx="152" cy="-167" rx="27" ry="18"/>
<text text-anchor="middle" x="152" y="-163.3" font-family="Times,serif" font-size="14.00">*</text>
</g>
<!-- 140456681346096&#45;&gt;140456681348832_* -->
<g id="edge5" class="edge">
<title>140456681346096&#45;&gt;140456681348832_*</title>
<path fill="none" stroke="black" d="M89.02,-192.85C99.13,-188.63 109.71,-184.22 119.2,-180.26"/>
<polygon fill="black" stroke="black" points="120.76,-183.4 128.64,-176.32 118.07,-176.94 120.76,-183.4"/>
</g>
<!-- 140456681347248 -->
<g id="node2" class="node">
<title>140456681347248</title>
<polygon fill="none" stroke="black" points="2.5,-88.5 2.5,-157.5 86.5,-157.5 86.5,-88.5 2.5,-88.5"/>
<text text-anchor="middle" x="44.5" y="-142.3" font-family="Times,serif" font-size="14.00">a</text>
<polyline fill="none" stroke="black" points="2.5,-134.5 86.5,-134.5 "/>
<text text-anchor="middle" x="44.5" y="-119.3" font-family="Times,serif" font-size="14.00">data 2.06</text>
<polyline fill="none" stroke="black" points="2.5,-111.5 86.5,-111.5 "/>
<text text-anchor="middle" x="44.5" y="-96.3" font-family="Times,serif" font-size="14.00">grad 6</text>
</g>
<!-- 140456681347248&#45;&gt;140456681348832_* -->
<g id="edge9" class="edge">
<title>140456681347248&#45;&gt;140456681348832_*</title>
<path fill="none" stroke="black" d="M86.59,-140.14C97.46,-144.67 109.03,-149.5 119.32,-153.79"/>
<polygon fill="black" stroke="black" points="118.15,-157.09 128.73,-157.71 120.85,-150.63 118.15,-157.09"/>
</g>
<!-- 140456681348832 -->
<g id="node3" class="node">
<title>140456681348832</title>
<polygon fill="none" stroke="black" points="215,-132.5 215,-201.5 322,-201.5 322,-132.5 215,-132.5"/>
<text text-anchor="middle" x="268.5" y="-186.3" font-family="Times,serif" font-size="14.00">e</text>
<polyline fill="none" stroke="black" points="215,-178.5 322,-178.5 "/>
<text text-anchor="middle" x="268.5" y="-163.3" font-family="Times,serif" font-size="14.00">data &#45;6.2624</text>
<polyline fill="none" stroke="black" points="215,-155.5 322,-155.5 "/>
<text text-anchor="middle" x="268.5" y="-140.3" font-family="Times,serif" font-size="14.00">grad 0</text>
</g>
<!-- 140456681348976_+ -->
<g id="node10" class="node">
<title>140456681348976_+</title>
<ellipse fill="none" stroke="black" cx="385" cy="-123" rx="27" ry="18"/>
<text text-anchor="middle" x="385" y="-119.3" font-family="Times,serif" font-size="14.00">+</text>
</g>
<!-- 140456681348832&#45;&gt;140456681348976_+ -->
<g id="edge4" class="edge">
<title>140456681348832&#45;&gt;140456681348976_+</title>
<path fill="none" stroke="black" d="M322.06,-146.8C332.16,-142.92 342.46,-138.96 351.68,-135.42"/>
<polygon fill="black" stroke="black" points="353.13,-138.61 361.21,-131.76 350.62,-132.08 353.13,-138.61"/>
</g>
<!-- 140456681348832_*&#45;&gt;140456681348832 -->
<g id="edge1" class="edge">
<title>140456681348832_*&#45;&gt;140456681348832</title>
<path fill="none" stroke="black" d="M179.27,-167C186.94,-167 195.68,-167 204.61,-167"/>
<polygon fill="black" stroke="black" points="204.71,-170.5 214.71,-167 204.71,-163.5 204.71,-170.5"/>
</g>
<!-- 140456681347296 -->
<g id="node5" class="node">
<title>140456681347296</title>
<polygon fill="none" stroke="black" points="226.5,-44.5 226.5,-113.5 310.5,-113.5 310.5,-44.5 226.5,-44.5"/>
<text text-anchor="middle" x="268.5" y="-98.3" font-family="Times,serif" font-size="14.00">c</text>
<polyline fill="none" stroke="black" points="226.5,-90.5 310.5,-90.5 "/>
<text text-anchor="middle" x="268.5" y="-75.3" font-family="Times,serif" font-size="14.00">data 9.98</text>
<polyline fill="none" stroke="black" points="226.5,-67.5 310.5,-67.5 "/>
<text text-anchor="middle" x="268.5" y="-52.3" font-family="Times,serif" font-size="14.00">grad &#45;2.0</text>
</g>
<!-- 140456681347296&#45;&gt;140456681348976_+ -->
<g id="edge6" class="edge">
<title>140456681347296&#45;&gt;140456681348976_+</title>
<path fill="none" stroke="black" d="M310.51,-94.76C324.12,-99.99 339.05,-105.73 351.88,-110.66"/>
<polygon fill="black" stroke="black" points="350.64,-113.93 361.23,-114.25 353.15,-107.4 350.64,-113.93"/>
</g>
<!-- 140456681347824 -->
<g id="node6" class="node">
<title>140456681347824</title>
<polygon fill="none" stroke="black" points="676,-44.5 676,-113.5 801,-113.5 801,-44.5 676,-44.5"/>
<text text-anchor="middle" x="738.5" y="-98.3" font-family="Times,serif" font-size="14.00">L</text>
<polyline fill="none" stroke="black" points="676,-90.5 801,-90.5 "/>
<text text-anchor="middle" x="738.5" y="-75.3" font-family="Times,serif" font-size="14.00">data &#45;7.286496</text>
<polyline fill="none" stroke="black" points="676,-67.5 801,-67.5 "/>
<text text-anchor="middle" x="738.5" y="-52.3" font-family="Times,serif" font-size="14.00">grad 0</text>
</g>
<!-- 140456681347824_* -->
<g id="node7" class="node">
<title>140456681347824_*</title>
<ellipse fill="none" stroke="black" cx="613" cy="-79" rx="27" ry="18"/>
<text text-anchor="middle" x="613" y="-75.3" font-family="Times,serif" font-size="14.00">*</text>
</g>
<!-- 140456681347824_*&#45;&gt;140456681347824 -->
<g id="edge2" class="edge">
<title>140456681347824_*&#45;&gt;140456681347824</title>
<path fill="none" stroke="black" d="M640.19,-79C647.8,-79 656.51,-79 665.52,-79"/>
<polygon fill="black" stroke="black" points="665.77,-82.5 675.77,-79 665.77,-75.5 665.77,-82.5"/>
</g>
<!-- 140456681347392 -->
<g id="node8" class="node">
<title>140456681347392</title>
<polygon fill="none" stroke="black" points="454.5,-0.5 454.5,-69.5 543.5,-69.5 543.5,-0.5 454.5,-0.5"/>
<text text-anchor="middle" x="499" y="-54.3" font-family="Times,serif" font-size="14.00">f</text>
<polyline fill="none" stroke="black" points="454.5,-46.5 543.5,-46.5 "/>
<text text-anchor="middle" x="499" y="-31.3" font-family="Times,serif" font-size="14.00">data &#45;1.96</text>
<polyline fill="none" stroke="black" points="454.5,-23.5 543.5,-23.5 "/>
<text text-anchor="middle" x="499" y="-8.3" font-family="Times,serif" font-size="14.00">grad 4.0</text>
</g>
<!-- 140456681347392&#45;&gt;140456681347824_* -->
<g id="edge7" class="edge">
<title>140456681347392&#45;&gt;140456681347824_*</title>
<path fill="none" stroke="black" d="M543.62,-52.14C555.69,-56.88 568.56,-61.94 579.85,-66.37"/>
<polygon fill="black" stroke="black" points="578.71,-69.68 589.3,-70.08 581.27,-63.17 578.71,-69.68"/>
</g>
<!-- 140456681348976 -->
<g id="node9" class="node">
<title>140456681348976</title>
<polygon fill="none" stroke="black" points="448,-88.5 448,-157.5 550,-157.5 550,-88.5 448,-88.5"/>
<text text-anchor="middle" x="499" y="-142.3" font-family="Times,serif" font-size="14.00">d</text>
<polyline fill="none" stroke="black" points="448,-134.5 550,-134.5 "/>
<text text-anchor="middle" x="499" y="-119.3" font-family="Times,serif" font-size="14.00">data 3.7176</text>
<polyline fill="none" stroke="black" points="448,-111.5 550,-111.5 "/>
<text text-anchor="middle" x="499" y="-96.3" font-family="Times,serif" font-size="14.00">grad 0</text>
</g>
<!-- 140456681348976&#45;&gt;140456681347824_* -->
<g id="edge8" class="edge">
<title>140456681348976&#45;&gt;140456681347824_*</title>
<path fill="none" stroke="black" d="M550.1,-103.32C560.2,-99.35 570.55,-95.28 579.83,-91.64"/>
<polygon fill="black" stroke="black" points="581.39,-94.79 589.42,-87.87 578.83,-88.27 581.39,-94.79"/>
</g>
<!-- 140456681348976_+&#45;&gt;140456681348976 -->
<g id="edge3" class="edge">
<title>140456681348976_+&#45;&gt;140456681348976</title>
<path fill="none" stroke="black" d="M412.26,-123C419.96,-123 428.73,-123 437.64,-123"/>
<polygon fill="black" stroke="black" points="437.71,-126.5 447.71,-123 437.71,-119.5 437.71,-126.5"/>
</g>
</g>
</svg>
