<?xml version="1.0" encoding="UTF-8" standalone="no"?>
<!DOCTYPE svg PUBLIC "-//W3C//DTD SVG 1.1//EN"
 "http://www.w3.org/Graphics/SVG/1.1/DTD/svg11.dtd">
<!-- Generated by graphviz version 2.43.0 (0)
 -->
<!-- Title: %3 Pages: 1 -->
<svg width="1682pt" height="127pt"
 viewBox="0.00 0.00 1681.59 127.00" xmlns="http://www.w3.org/2000/svg" xmlns:xlink="http://www.w3.org/1999/xlink">
<g id="graph0" class="graph" transform="scale(1 1) rotate(0) translate(4 123)">
<title>%3</title>
<polygon fill="white" stroke="transparent" points="-4,4 -4,-123 1677.59,-123 1677.59,4 -4,4"/>
<!-- 139972769974784 -->
<g id="node1" class="node">
<title>139972769974784</title>
<polygon fill="none" stroke="black" points="1086.59,-27.5 1086.59,-63.5 1313.59,-63.5 1313.59,-27.5 1086.59,-27.5"/>
<text text-anchor="middle" x="1097.09" y="-41.8" font-family="Times,serif" font-size="14.00"> </text>
<polyline fill="none" stroke="black" points="1107.59,-27.5 1107.59,-63.5 "/>
<text text-anchor="middle" x="1158.59" y="-41.8" font-family="Times,serif" font-size="14.00">data 0.1250</text>
<polyline fill="none" stroke="black" points="1209.59,-27.5 1209.59,-63.5 "/>
<text text-anchor="middle" x="1261.59" y="-41.8" font-family="Times,serif" font-size="14.00">grad 0.0000</text>
</g>
<!-- 139972769973728_* -->
<g id="node11" class="node">
<title>139972769973728_*</title>
<ellipse fill="none" stroke="black" cx="1378.59" cy="-72.5" rx="27" ry="18"/>
<text text-anchor="middle" x="1378.59" y="-68.8" font-family="Times,serif" font-size="14.00">*</text>
</g>
<!-- 139972769974784&#45;&gt;139972769973728_* -->
<g id="edge9" class="edge">
<title>139972769974784&#45;&gt;139972769973728_*</title>
<path fill="none" stroke="black" d="M1313.62,-62.71C1323.74,-64.26 1333.39,-65.74 1342,-67.06"/>
<polygon fill="black" stroke="black" points="1341.52,-70.52 1351.93,-68.57 1342.58,-63.6 1341.52,-70.52"/>
</g>
<!-- 139972769974784_pow -->
<g id="node2" class="node">
<title>139972769974784_pow</title>
<ellipse fill="none" stroke="black" cx="1018.69" cy="-45.5" rx="29.8" ry="18"/>
<text text-anchor="middle" x="1018.69" y="-41.8" font-family="Times,serif" font-size="14.00">pow</text>
</g>
<!-- 139972769974784_pow&#45;&gt;139972769974784 -->
<g id="edge1" class="edge">
<title>139972769974784_pow&#45;&gt;139972769974784</title>
<path fill="none" stroke="black" d="M1048.91,-45.5C1057.03,-45.5 1066.38,-45.5 1076.37,-45.5"/>
<polygon fill="black" stroke="black" points="1076.55,-49 1086.55,-45.5 1076.55,-42 1076.55,-49"/>
</g>
<!-- 139972769975360 -->
<g id="node3" class="node">
<title>139972769975360</title>
<polygon fill="none" stroke="black" points="1084.59,-82.5 1084.59,-118.5 1315.59,-118.5 1315.59,-82.5 1084.59,-82.5"/>
<text text-anchor="middle" x="1097.09" y="-96.8" font-family="Times,serif" font-size="14.00">e</text>
<polyline fill="none" stroke="black" points="1109.59,-82.5 1109.59,-118.5 "/>
<text text-anchor="middle" x="1160.59" y="-96.8" font-family="Times,serif" font-size="14.00">data 3.0000</text>
<polyline fill="none" stroke="black" points="1211.59,-82.5 1211.59,-118.5 "/>
<text text-anchor="middle" x="1263.59" y="-96.8" font-family="Times,serif" font-size="14.00">grad 0.0000</text>
</g>
<!-- 139972769975360&#45;&gt;139972769973728_* -->
<g id="edge6" class="edge">
<title>139972769975360&#45;&gt;139972769973728_*</title>
<path fill="none" stroke="black" d="M1314.87,-82.45C1324.62,-80.9 1333.92,-79.43 1342.23,-78.11"/>
<polygon fill="black" stroke="black" points="1342.86,-81.55 1352.18,-76.53 1341.76,-74.64 1342.86,-81.55"/>
</g>
<!-- 139972769974400 -->
<g id="node4" class="node">
<title>139972769974400</title>
<polygon fill="none" stroke="black" points="720.79,-27.5 720.79,-63.5 952.79,-63.5 952.79,-27.5 720.79,-27.5"/>
<text text-anchor="middle" x="733.79" y="-41.8" font-family="Times,serif" font-size="14.00">d</text>
<polyline fill="none" stroke="black" points="746.79,-27.5 746.79,-63.5 "/>
<text text-anchor="middle" x="797.79" y="-41.8" font-family="Times,serif" font-size="14.00">data 8.0000</text>
<polyline fill="none" stroke="black" points="848.79,-27.5 848.79,-63.5 "/>
<text text-anchor="middle" x="900.79" y="-41.8" font-family="Times,serif" font-size="14.00">grad 0.0000</text>
</g>
<!-- 139972769974400&#45;&gt;139972769974784_pow -->
<g id="edge8" class="edge">
<title>139972769974400&#45;&gt;139972769974784_pow</title>
<path fill="none" stroke="black" d="M953,-45.5C961.97,-45.5 970.57,-45.5 978.41,-45.5"/>
<polygon fill="black" stroke="black" points="978.59,-49 988.59,-45.5 978.59,-42 978.59,-49"/>
</g>
<!-- 139972769974400_+ -->
<g id="node5" class="node">
<title>139972769974400_+</title>
<ellipse fill="none" stroke="black" cx="657.79" cy="-45.5" rx="27" ry="18"/>
<text text-anchor="middle" x="657.79" y="-41.8" font-family="Times,serif" font-size="14.00">+</text>
</g>
<!-- 139972769974400_+&#45;&gt;139972769974400 -->
<g id="edge2" class="edge">
<title>139972769974400_+&#45;&gt;139972769974400</title>
<path fill="none" stroke="black" d="M684.91,-45.5C692.33,-45.5 700.93,-45.5 710.2,-45.5"/>
<polygon fill="black" stroke="black" points="710.49,-49 720.49,-45.5 710.49,-42 710.49,-49"/>
</g>
<!-- 139972769973536 -->
<g id="node6" class="node">
<title>139972769973536</title>
<polygon fill="none" stroke="black" points="362.79,-55.5 362.79,-91.5 594.79,-91.5 594.79,-55.5 362.79,-55.5"/>
<text text-anchor="middle" x="375.79" y="-69.8" font-family="Times,serif" font-size="14.00">b</text>
<polyline fill="none" stroke="black" points="388.79,-55.5 388.79,-91.5 "/>
<text text-anchor="middle" x="439.79" y="-69.8" font-family="Times,serif" font-size="14.00">data 4.0000</text>
<polyline fill="none" stroke="black" points="490.79,-55.5 490.79,-91.5 "/>
<text text-anchor="middle" x="542.79" y="-69.8" font-family="Times,serif" font-size="14.00">grad 0.0000</text>
</g>
<!-- 139972769973536&#45;&gt;139972769974400_+ -->
<g id="edge5" class="edge">
<title>139972769973536&#45;&gt;139972769974400_+</title>
<path fill="none" stroke="black" d="M593.89,-55.45C603.68,-53.9 613,-52.43 621.33,-51.11"/>
<polygon fill="black" stroke="black" points="621.99,-54.55 631.32,-49.53 620.89,-47.64 621.99,-54.55"/>
</g>
<!-- 139972769974592 -->
<g id="node7" class="node">
<title>139972769974592</title>
<polygon fill="none" stroke="black" points="0,-0.5 0,-36.5 231,-36.5 231,-0.5 0,-0.5"/>
<text text-anchor="middle" x="12.5" y="-14.8" font-family="Times,serif" font-size="14.00">a</text>
<polyline fill="none" stroke="black" points="25,-0.5 25,-36.5 "/>
<text text-anchor="middle" x="76" y="-14.8" font-family="Times,serif" font-size="14.00">data 2.0000</text>
<polyline fill="none" stroke="black" points="127,-0.5 127,-36.5 "/>
<text text-anchor="middle" x="179" y="-14.8" font-family="Times,serif" font-size="14.00">grad 0.0000</text>
</g>
<!-- 139972769975168_pow -->
<g id="node9" class="node">
<title>139972769975168_pow</title>
<ellipse fill="none" stroke="black" cx="296.9" cy="-18.5" rx="29.8" ry="18"/>
<text text-anchor="middle" x="296.9" y="-14.8" font-family="Times,serif" font-size="14.00">pow</text>
</g>
<!-- 139972769974592&#45;&gt;139972769975168_pow -->
<g id="edge7" class="edge">
<title>139972769974592&#45;&gt;139972769975168_pow</title>
<path fill="none" stroke="black" d="M231.13,-18.5C240.1,-18.5 248.71,-18.5 256.56,-18.5"/>
<polygon fill="black" stroke="black" points="256.75,-22 266.75,-18.5 256.75,-15 256.75,-22"/>
</g>
<!-- 139972769975168 -->
<g id="node8" class="node">
<title>139972769975168</title>
<polygon fill="none" stroke="black" points="363.79,-0.5 363.79,-36.5 593.79,-36.5 593.79,-0.5 363.79,-0.5"/>
<text text-anchor="middle" x="375.79" y="-14.8" font-family="Times,serif" font-size="14.00">c</text>
<polyline fill="none" stroke="black" points="387.79,-0.5 387.79,-36.5 "/>
<text text-anchor="middle" x="438.79" y="-14.8" font-family="Times,serif" font-size="14.00">data 4.0000</text>
<polyline fill="none" stroke="black" points="489.79,-0.5 489.79,-36.5 "/>
<text text-anchor="middle" x="541.79" y="-14.8" font-family="Times,serif" font-size="14.00">grad 0.0000</text>
</g>
<!-- 139972769975168&#45;&gt;139972769974400_+ -->
<g id="edge10" class="edge">
<title>139972769975168&#45;&gt;139972769974400_+</title>
<path fill="none" stroke="black" d="M593.89,-35.9C603.68,-37.4 613,-38.82 621.33,-40.09"/>
<polygon fill="black" stroke="black" points="620.9,-43.57 631.32,-41.61 621.96,-36.65 620.9,-43.57"/>
</g>
<!-- 139972769975168_pow&#45;&gt;139972769975168 -->
<g id="edge3" class="edge">
<title>139972769975168_pow&#45;&gt;139972769975168</title>
<path fill="none" stroke="black" d="M326.8,-18.5C334.77,-18.5 343.95,-18.5 353.77,-18.5"/>
<polygon fill="black" stroke="black" points="353.78,-22 363.78,-18.5 353.78,-15 353.78,-22"/>
</g>
<!-- 139972769973728 -->
<g id="node10" class="node">
<title>139972769973728</title>
<polygon fill="none" stroke="black" points="1441.59,-54.5 1441.59,-90.5 1673.59,-90.5 1673.59,-54.5 1441.59,-54.5"/>
<text text-anchor="middle" x="1454.59" y="-68.8" font-family="Times,serif" font-size="14.00">L</text>
<polyline fill="none" stroke="black" points="1467.59,-54.5 1467.59,-90.5 "/>
<text text-anchor="middle" x="1518.59" y="-68.8" font-family="Times,serif" font-size="14.00">data 0.3750</text>
<polyline fill="none" stroke="black" points="1569.59,-54.5 1569.59,-90.5 "/>
<text text-anchor="middle" x="1621.59" y="-68.8" font-family="Times,serif" font-size="14.00">grad 0.0000</text>
</g>
<!-- 139972769973728_*&#45;&gt;139972769973728 -->
<g id="edge4" class="edge">
<title>139972769973728_*&#45;&gt;139972769973728</title>
<path fill="none" stroke="black" d="M1405.71,-72.5C1413.12,-72.5 1421.73,-72.5 1430.99,-72.5"/>
<polygon fill="black" stroke="black" points="1431.28,-76 1441.28,-72.5 1431.28,-69 1431.28,-76"/>
</g>
</g>
</svg>
