<?xml version="1.0" encoding="UTF-8" standalone="no"?>
<!DOCTYPE svg PUBLIC "-//W3C//DTD SVG 1.1//EN"
 "http://www.w3.org/Graphics/SVG/1.1/DTD/svg11.dtd">
<!-- Generated by graphviz version 2.43.0 (0)
 -->
<!-- Title: %3 Pages: 1 -->
<svg width="935pt" height="210pt"
 viewBox="0.00 0.00 934.59 210.00" xmlns="http://www.w3.org/2000/svg" xmlns:xlink="http://www.w3.org/1999/xlink">
<g id="graph0" class="graph" transform="scale(1 1) rotate(0) translate(4 206)">
<title>%3</title>
<polygon fill="white" stroke="transparent" points="-4,4 -4,-206 930.59,-206 930.59,4 -4,4"/>
<!-- 139868859804208 -->
<g id="node1" class="node">
<title>139868859804208</title>
<polygon fill="none" stroke="black" points="407.79,-44.5 407.79,-113.5 482.79,-113.5 482.79,-44.5 407.79,-44.5"/>
<text text-anchor="middle" x="445.29" y="-98.3" font-family="Times,serif" font-size="14.00">d</text>
<polyline fill="none" stroke="black" points="407.79,-90.5 482.79,-90.5 "/>
<text text-anchor="middle" x="445.29" y="-75.3" font-family="Times,serif" font-size="14.00">data 8.0</text>
<polyline fill="none" stroke="black" points="407.79,-67.5 482.79,-67.5 "/>
<text text-anchor="middle" x="445.29" y="-52.3" font-family="Times,serif" font-size="14.00">grad 0</text>
</g>
<!-- 139868859805024_pow -->
<g id="node8" class="node">
<title>139868859805024_pow</title>
<ellipse fill="none" stroke="black" cx="548.69" cy="-79" rx="29.8" ry="18"/>
<text text-anchor="middle" x="548.69" y="-75.3" font-family="Times,serif" font-size="14.00">pow</text>
</g>
<!-- 139868859804208&#45;&gt;139868859805024_pow -->
<g id="edge9" class="edge">
<title>139868859804208&#45;&gt;139868859805024_pow</title>
<path fill="none" stroke="black" d="M482.9,-79C491.29,-79 500.24,-79 508.72,-79"/>
<polygon fill="black" stroke="black" points="508.77,-82.5 518.77,-79 508.77,-75.5 508.77,-82.5"/>
</g>
<!-- 139868859804208_+ -->
<g id="node2" class="node">
<title>139868859804208_+</title>
<ellipse fill="none" stroke="black" cx="344.79" cy="-79" rx="27" ry="18"/>
<text text-anchor="middle" x="344.79" y="-75.3" font-family="Times,serif" font-size="14.00">+</text>
</g>
<!-- 139868859804208_+&#45;&gt;139868859804208 -->
<g id="edge1" class="edge">
<title>139868859804208_+&#45;&gt;139868859804208</title>
<path fill="none" stroke="black" d="M371.93,-79C379.8,-79 388.68,-79 397.46,-79"/>
<polygon fill="black" stroke="black" points="397.65,-82.5 407.65,-79 397.65,-75.5 397.65,-82.5"/>
</g>
<!-- 139868859804784 -->
<g id="node3" class="node">
<title>139868859804784</title>
<polygon fill="none" stroke="black" points="623.59,-132.5 623.59,-201.5 698.59,-201.5 698.59,-132.5 623.59,-132.5"/>
<text text-anchor="middle" x="661.09" y="-186.3" font-family="Times,serif" font-size="14.00">e</text>
<polyline fill="none" stroke="black" points="623.59,-178.5 698.59,-178.5 "/>
<text text-anchor="middle" x="661.09" y="-163.3" font-family="Times,serif" font-size="14.00">data 3.0</text>
<polyline fill="none" stroke="black" points="623.59,-155.5 698.59,-155.5 "/>
<text text-anchor="middle" x="661.09" y="-140.3" font-family="Times,serif" font-size="14.00">grad 0</text>
</g>
<!-- 139868859803920_* -->
<g id="node6" class="node">
<title>139868859803920_*</title>
<ellipse fill="none" stroke="black" cx="770.59" cy="-123" rx="27" ry="18"/>
<text text-anchor="middle" x="770.59" y="-119.3" font-family="Times,serif" font-size="14.00">*</text>
</g>
<!-- 139868859804784&#45;&gt;139868859803920_* -->
<g id="edge6" class="edge">
<title>139868859804784&#45;&gt;139868859803920_*</title>
<path fill="none" stroke="black" d="M698.78,-151.98C711.45,-146.79 725.54,-141.03 737.78,-136.02"/>
<polygon fill="black" stroke="black" points="739.22,-139.21 747.15,-132.19 736.57,-132.73 739.22,-139.21"/>
</g>
<!-- 139868859804352 -->
<g id="node4" class="node">
<title>139868859804352</title>
<polygon fill="none" stroke="black" points="206.79,-88.5 206.79,-157.5 281.79,-157.5 281.79,-88.5 206.79,-88.5"/>
<text text-anchor="middle" x="244.29" y="-142.3" font-family="Times,serif" font-size="14.00">b</text>
<polyline fill="none" stroke="black" points="206.79,-134.5 281.79,-134.5 "/>
<text text-anchor="middle" x="244.29" y="-119.3" font-family="Times,serif" font-size="14.00">data 4.0</text>
<polyline fill="none" stroke="black" points="206.79,-111.5 281.79,-111.5 "/>
<text text-anchor="middle" x="244.29" y="-96.3" font-family="Times,serif" font-size="14.00">grad 0</text>
</g>
<!-- 139868859804352&#45;&gt;139868859804208_+ -->
<g id="edge7" class="edge">
<title>139868859804352&#45;&gt;139868859804208_+</title>
<path fill="none" stroke="black" d="M281.97,-106.62C292.06,-102.11 302.91,-97.26 312.66,-92.91"/>
<polygon fill="black" stroke="black" points="314.27,-96.02 321.97,-88.75 311.41,-89.63 314.27,-96.02"/>
</g>
<!-- 139868859803920 -->
<g id="node5" class="node">
<title>139868859803920</title>
<polygon fill="none" stroke="black" points="833.59,-88.5 833.59,-157.5 926.59,-157.5 926.59,-88.5 833.59,-88.5"/>
<text text-anchor="middle" x="880.09" y="-142.3" font-family="Times,serif" font-size="14.00">L</text>
<polyline fill="none" stroke="black" points="833.59,-134.5 926.59,-134.5 "/>
<text text-anchor="middle" x="880.09" y="-119.3" font-family="Times,serif" font-size="14.00">data 0.375</text>
<polyline fill="none" stroke="black" points="833.59,-111.5 926.59,-111.5 "/>
<text text-anchor="middle" x="880.09" y="-96.3" font-family="Times,serif" font-size="14.00">grad 0</text>
</g>
<!-- 139868859803920_*&#45;&gt;139868859803920 -->
<g id="edge2" class="edge">
<title>139868859803920_*&#45;&gt;139868859803920</title>
<path fill="none" stroke="black" d="M797.61,-123C805.47,-123 814.41,-123 823.43,-123"/>
<polygon fill="black" stroke="black" points="823.58,-126.5 833.58,-123 823.58,-119.5 823.58,-126.5"/>
</g>
<!-- 139868859805024 -->
<g id="node7" class="node">
<title>139868859805024</title>
<polygon fill="none" stroke="black" points="614.59,-44.5 614.59,-113.5 707.59,-113.5 707.59,-44.5 614.59,-44.5"/>
<text text-anchor="middle" x="661.09" y="-98.3" font-family="Times,serif" font-size="14.00"> </text>
<polyline fill="none" stroke="black" points="614.59,-90.5 707.59,-90.5 "/>
<text text-anchor="middle" x="661.09" y="-75.3" font-family="Times,serif" font-size="14.00">data 0.125</text>
<polyline fill="none" stroke="black" points="614.59,-67.5 707.59,-67.5 "/>
<text text-anchor="middle" x="661.09" y="-52.3" font-family="Times,serif" font-size="14.00">grad 0</text>
</g>
<!-- 139868859805024&#45;&gt;139868859803920_* -->
<g id="edge5" class="edge">
<title>139868859805024&#45;&gt;139868859803920_*</title>
<path fill="none" stroke="black" d="M707.68,-97.66C717.79,-101.8 728.29,-106.1 737.71,-109.95"/>
<polygon fill="black" stroke="black" points="736.5,-113.24 747.08,-113.79 739.15,-106.76 736.5,-113.24"/>
</g>
<!-- 139868859805024_pow&#45;&gt;139868859805024 -->
<g id="edge3" class="edge">
<title>139868859805024_pow&#45;&gt;139868859805024</title>
<path fill="none" stroke="black" d="M578.7,-79C586.5,-79 595.22,-79 603.97,-79"/>
<polygon fill="black" stroke="black" points="604.2,-82.5 614.2,-79 604.2,-75.5 604.2,-82.5"/>
</g>
<!-- 139868859804016 -->
<g id="node9" class="node">
<title>139868859804016</title>
<polygon fill="none" stroke="black" points="0,-0.5 0,-69.5 75,-69.5 75,-0.5 0,-0.5"/>
<text text-anchor="middle" x="37.5" y="-54.3" font-family="Times,serif" font-size="14.00">a</text>
<polyline fill="none" stroke="black" points="0,-46.5 75,-46.5 "/>
<text text-anchor="middle" x="37.5" y="-31.3" font-family="Times,serif" font-size="14.00">data 2.0</text>
<polyline fill="none" stroke="black" points="0,-23.5 75,-23.5 "/>
<text text-anchor="middle" x="37.5" y="-8.3" font-family="Times,serif" font-size="14.00">grad 0</text>
</g>
<!-- 139868859805120_pow -->
<g id="node11" class="node">
<title>139868859805120_pow</title>
<ellipse fill="none" stroke="black" cx="140.9" cy="-35" rx="29.8" ry="18"/>
<text text-anchor="middle" x="140.9" y="-31.3" font-family="Times,serif" font-size="14.00">pow</text>
</g>
<!-- 139868859804016&#45;&gt;139868859805120_pow -->
<g id="edge10" class="edge">
<title>139868859804016&#45;&gt;139868859805120_pow</title>
<path fill="none" stroke="black" d="M75.11,-35C83.5,-35 92.44,-35 100.93,-35"/>
<polygon fill="black" stroke="black" points="100.98,-38.5 110.98,-35 100.98,-31.5 100.98,-38.5"/>
</g>
<!-- 139868859805120 -->
<g id="node10" class="node">
<title>139868859805120</title>
<polygon fill="none" stroke="black" points="206.79,-0.5 206.79,-69.5 281.79,-69.5 281.79,-0.5 206.79,-0.5"/>
<text text-anchor="middle" x="244.29" y="-54.3" font-family="Times,serif" font-size="14.00">c</text>
<polyline fill="none" stroke="black" points="206.79,-46.5 281.79,-46.5 "/>
<text text-anchor="middle" x="244.29" y="-31.3" font-family="Times,serif" font-size="14.00">data 4.0</text>
<polyline fill="none" stroke="black" points="206.79,-23.5 281.79,-23.5 "/>
<text text-anchor="middle" x="244.29" y="-8.3" font-family="Times,serif" font-size="14.00">grad 0</text>
</g>
<!-- 139868859805120&#45;&gt;139868859804208_+ -->
<g id="edge8" class="edge">
<title>139868859805120&#45;&gt;139868859804208_+</title>
<path fill="none" stroke="black" d="M281.97,-51.38C292.06,-55.89 302.91,-60.74 312.66,-65.09"/>
<polygon fill="black" stroke="black" points="311.41,-68.37 321.97,-69.25 314.27,-61.98 311.41,-68.37"/>
</g>
<!-- 139868859805120_pow&#45;&gt;139868859805120 -->
<g id="edge4" class="edge">
<title>139868859805120_pow&#45;&gt;139868859805120</title>
<path fill="none" stroke="black" d="M170.95,-35C178.95,-35 187.82,-35 196.54,-35"/>
<polygon fill="black" stroke="black" points="196.64,-38.5 206.64,-35 196.64,-31.5 196.64,-38.5"/>
</g>
</g>
</svg>
